{"title":"Kung Fu Panda 2 2011 R6 LiNE XViD - CHOiCE","uid":6612338,"size":1472191174,"categoryP":"video","categoryS":"movies","magnet":"?xt=urn:btih:dc53d2777fe01266640be5c735b25a53c7482ce2&amp;dn=Kung+Fu+Panda+2+2011+R6+LiNE+XViD+-+CHOiCE&amp;tr=udp%3A%2F%2Ftracker.openbittorrent.com%3A80&amp;tr=udp%3A%2F%2Fopen.demonii.com%3A1337&amp;tr=udp%3A%2F%2Ftracker.coppersurfer.tk%3A6969&amp;tr=udp%3A%2F%2Fexodus.desync.com%3A6969","seeders":1,"leechers":0,"uploader":"DibyaTPB","files":1,"time":1313650647,"description":"Kung Fu Panda 2 2011 R6 LiNE XViD - CHOiCE\n\n\nIMDB: http://www.imdb.com/title/tt1302011/           \n\nRELEASE DATE: 5/26/11                        \nSIZE: 1.36gb                                         LENGTH: 1H 23MN\nSOURCE: V: ZJM A: ZJM Thanks                         HEIGHT: 288\nSUBTITLES: NONE                                      WIDTH: 640\n\n\nINFO:\nVideo\nID                               : 0\nFormat                           : MPEG-4 Visual\nFormat profile                   : Advanced Simple@L5\nFormat settings, BVOP            : 2\nFormat settings, QPel            : No\nFormat settings, GMC             : No warppoints\nFormat settings, Matrix          : Default (MPEG)\nMuxing mode                      : Packed bitstream\nCodec ID                         : XVID\nCodec ID/Hint                    : XviD\nDuration                         : 1h 23mn\nBit rate                         : 2 199 Kbps\nWidth                            : 640 pixels\nHeight                           : 288 pixels\nDisplay aspect ratio             : 2.222\nFrame rate                       : 29.970 fps\nColor space                      : YUV\nChroma subsampling               : 4:2:0\nBit depth                        : 8 bits\nScan type                        : Progressive\nCompression mode                 : Lossy\nBits/(Pixel*Frame)               : 0.398\nStream size                      : 1.29 GiB (94%)\nWriting library                  : XviD 64\n\nAudio\nID                               : 1\nFormat                           : MPEG Audio\nFormat version                   : Version 1\nFormat profile                   : Layer 3\nMode                             : Joint stereo\nMode extension                   : MS Stereo\nCodec ID                         : 55\nCodec ID/Hint                    : MP3\nDuration                         : 1h 23mn\nBit rate mode                    : Constant\nBit rate                         : 128 Kbps\nChannel(s)                       : 2 channels\nSampling rate                    : 44.1 KHz\nCompression mode                 : Lossy\nStream size                      : 76.8 MiB (5%)\nAlignment                        : Split accross interleaves\nInterleave, duration             : 33 ms (1.00 video frame)\n\nNOTES:\nSource was very nice, but dont think it was a true dvdscr, yet it wasnt a cam either\nEnd credits are half intact, but also have chinese subs hardcoded so we went with\nthe r6 tag from teh subs and picture quality \nAnyhow, audio was nice possibly line but was oos here and there so we made several cuts\nand fixed that. Overall very nice release so enjoy or wait till retail.","torrent":{"xt":"urn:btih:dc53d2777fe01266640be5c735b25a53c7482ce2","amp;dn":"Kung+Fu+Panda+2+2011+R6+LiNE+XViD+-+CHOiCE","amp;tr":["udp%3A%2F%2Ftracker.openbittorrent.com%3A80","udp%3A%2F%2Fopen.demonii.com%3A1337","udp%3A%2F%2Ftracker.coppersurfer.tk%3A6969","udp%3A%2F%2Fexodus.desync.com%3A6969"],"infoHash":"dc53d2777fe01266640be5c735b25a53c7482ce2","infoHashBuffer":{"type":"Buffer","data":[220,83,210,119,127,224,18,102,100,11,229,199,53,178,90,83,199,72,44,226]},"announce":[],"urlList":[]}}